<svg xmlns="http://www.w3.org/2000/svg" xmlns:xlink="http://www.w3.org/1999/xlink" width="1640" zoomAndPan="magnify" viewBox="0 0 1230 693.000001" height="924" preserveAspectRatio="xMidYMid meet" version="1.0"><defs><g/><clipPath id="d7a9ac8008"><path d="M 502 238 L 689 238 L 689 478.277344 L 502 478.277344 Z M 502 238 " clip-rule="nonzero"/></clipPath><clipPath id="bbca20342e"><path d="M 480.730469 222.324219 L 710.082031 222.324219 L 710.082031 427.539062 L 480.730469 427.539062 Z M 480.730469 222.324219 " clip-rule="nonzero"/></clipPath></defs><g clip-path="url(#d7a9ac8008)"><path fill="#008037" d="M 688.761719 290.566406 L 597.105469 478.203125 L 502.230469 292.414062 C 502.300781 292.382812 502.441406 292.394531 502.441406 292.316406 C 502.441406 222.324219 688.742188 220.347656 688.742188 290.5625 C 688.742188 290.5625 688.753906 290.5625 688.757812 290.566406 " fill-opacity="1" fill-rule="nonzero"/></g><path fill="#ffffff" d="M 704.972656 261.351562 C 704.851562 260.738281 704.511719 260.207031 703.996094 259.863281 C 672.269531 238.628906 635.332031 227.410156 597.183594 227.410156 C 557.464844 227.40625 519.28125 239.484375 486.765625 262.335938 C 486.261719 262.6875 485.933594 263.21875 485.832031 263.828125 C 485.734375 264.449219 485.882812 265.070312 486.253906 265.578125 L 495.878906 278.621094 L 497.820312 281.253906 L 498.921875 282.742188 L 501.90625 286.789062 C 501.984375 286.75 502.0625 286.707031 502.140625 286.664062 L 506.6875 289.984375 L 544.828125 364.667969 C 542.382812 368.011719 540.929688 372.128906 540.929688 376.578125 C 540.929688 387.707031 549.96875 396.765625 561.074219 396.765625 C 561.121094 396.765625 561.164062 396.761719 561.214844 396.761719 L 597.003906 466.847656 L 644.707031 369.183594 C 645.421875 369.273438 646.148438 369.328125 646.882812 369.328125 C 656.296875 369.328125 663.960938 361.648438 663.960938 352.207031 C 663.960938 347.472656 662.03125 343.1875 658.921875 340.085938 L 684.261719 288.207031 L 689.167969 285.023438 L 691.183594 282.164062 L 693.5 278.867188 L 694.117188 278 L 704.585938 263.105469 C 704.949219 262.59375 705.082031 261.96875 704.972656 261.351562 " fill-opacity="1" fill-rule="nonzero"/><path fill="#008037" d="M 612.449219 374.328125 C 612.816406 372.96875 612.019531 371.574219 610.667969 371.203125 C 609.261719 370.824219 608.09375 369.921875 607.367188 368.652344 C 606.644531 367.386719 606.460938 365.917969 606.835938 364.511719 C 607.574219 361.792969 607.210938 358.949219 605.8125 356.507812 C 604.417969 354.066406 602.15625 352.308594 599.445312 351.574219 C 596.550781 350.785156 594.828125 347.78125 595.613281 344.878906 C 595.980469 343.523438 595.179688 342.125 593.832031 341.757812 C 592.480469 341.390625 591.085938 342.191406 590.722656 343.542969 C 589.203125 349.15625 592.519531 354.957031 598.117188 356.480469 C 599.519531 356.859375 600.691406 357.769531 601.410156 359.035156 C 602.132812 360.300781 602.324219 361.769531 601.941406 363.175781 C 601.207031 365.890625 601.574219 368.738281 602.96875 371.179688 C 604.359375 373.621094 606.621094 375.375 609.339844 376.113281 C 609.558594 376.171875 609.78125 376.199219 610.003906 376.199219 C 611.121094 376.199219 612.140625 375.457031 612.449219 374.328125 Z M 638.175781 287.984375 C 636.914062 288.710938 636.011719 289.882812 635.628906 291.289062 C 635.25 292.695312 635.433594 294.171875 636.160156 295.433594 C 639.042969 300.476562 637.292969 306.929688 632.265625 309.820312 C 631.003906 310.546875 630.09375 311.71875 629.714844 313.125 C 629.332031 314.53125 629.523438 316 630.246094 317.265625 C 630.941406 318.488281 630.523438 320.039062 629.308594 320.734375 C 628.910156 320.964844 628.476562 321.074219 628.046875 321.074219 C 627.167969 321.074219 626.316406 320.617188 625.847656 319.792969 C 624.445312 317.351562 624.085938 314.511719 624.820312 311.789062 C 625.554688 309.078125 627.300781 306.808594 629.742188 305.40625 C 632.347656 303.914062 633.25 300.570312 631.757812 297.960938 C 630.363281 295.515625 630.003906 292.675781 630.738281 289.957031 C 631.46875 287.242188 633.21875 284.972656 635.65625 283.570312 C 636.875 282.875 638.421875 283.296875 639.117188 284.511719 C 639.808594 285.730469 639.390625 287.285156 638.175781 287.984375 " fill-opacity="1" fill-rule="nonzero"/><g clip-path="url(#bbca20342e)"><path fill="#ef3044" d="M 576.140625 376.578125 C 576.140625 384.910156 569.382812 391.679688 561.074219 391.679688 C 552.765625 391.679688 546.007812 384.910156 546.007812 376.578125 C 546.007812 368.25 552.765625 361.476562 561.074219 361.476562 C 569.382812 361.476562 576.140625 368.25 576.140625 376.578125 Z M 598.890625 296.460938 C 598.890625 304.789062 592.136719 311.566406 583.824219 311.566406 C 575.519531 311.566406 568.757812 304.789062 568.757812 296.460938 C 568.757812 288.136719 575.519531 281.359375 583.824219 281.359375 C 592.136719 281.359375 598.890625 288.136719 598.890625 296.460938 Z M 658.890625 352.207031 C 658.890625 358.84375 653.503906 364.246094 646.882812 364.246094 C 640.265625 364.246094 634.878906 358.84375 634.878906 352.207031 C 634.878906 345.574219 640.265625 340.175781 646.882812 340.175781 C 653.503906 340.175781 658.890625 345.574219 658.890625 352.207031 Z M 614.898438 398.429688 C 615.015625 399.832031 613.980469 401.058594 612.585938 401.179688 C 611.136719 401.300781 609.820312 401.976562 608.878906 403.09375 C 607.945312 404.207031 607.492188 405.621094 607.613281 407.074219 C 607.847656 409.878906 606.980469 412.605469 605.167969 414.761719 C 603.355469 416.910156 600.8125 418.226562 598.015625 418.460938 C 595.023438 418.710938 592.792969 421.351562 593.042969 424.351562 C 593.160156 425.753906 592.121094 426.980469 590.726562 427.097656 C 590.65625 427.105469 590.585938 427.109375 590.515625 427.109375 C 589.207031 427.109375 588.097656 426.105469 587.988281 424.78125 C 587.5 418.988281 591.8125 413.878906 597.589844 413.394531 C 599.035156 413.269531 600.351562 412.589844 601.292969 411.476562 C 602.230469 410.363281 602.679688 408.953125 602.558594 407.5 C 602.324219 404.695312 603.195312 401.960938 605.007812 399.8125 C 606.820312 397.664062 609.359375 396.347656 612.164062 396.113281 C 613.546875 396.007812 614.78125 397.03125 614.898438 398.429688 Z M 546.558594 320.453125 C 540.957031 318.933594 537.644531 313.128906 539.164062 307.523438 C 539.527344 306.164062 540.921875 305.367188 542.273438 305.730469 C 543.628906 306.097656 544.421875 307.496094 544.054688 308.851562 C 543.269531 311.753906 544.992188 314.757812 547.886719 315.550781 C 553.480469 317.070312 556.800781 322.875 555.277344 328.484375 C 554.492188 331.390625 556.207031 334.394531 559.109375 335.183594 C 560.460938 335.550781 561.257812 336.949219 560.890625 338.296875 C 560.582031 339.433594 559.558594 340.175781 558.445312 340.175781 C 558.226562 340.175781 558 340.144531 557.78125 340.085938 C 552.183594 338.566406 548.867188 332.761719 550.386719 327.152344 C 551.167969 324.246094 549.453125 321.242188 546.558594 320.453125 Z M 688.746094 284.804688 C 688 284.410156 687.25 284.023438 686.492188 283.636719 C 658.890625 269.613281 628.128906 262.222656 597.183594 262.222656 C 564.855469 262.222656 532.882812 270.242188 504.375 285.453125 C 503.628906 285.855469 502.882812 286.257812 502.140625 286.664062 C 502.0625 286.707031 501.984375 286.75 501.90625 286.789062 L 498.921875 282.742188 L 497.820312 281.253906 L 495.878906 278.621094 L 486.253906 265.578125 C 485.882812 265.070312 485.734375 264.449219 485.832031 263.828125 C 485.933594 263.21875 486.261719 262.6875 486.765625 262.335938 C 519.285156 239.484375 557.464844 227.410156 597.183594 227.410156 C 635.332031 227.40625 672.269531 238.628906 703.996094 259.863281 C 704.511719 260.207031 704.851562 260.738281 704.972656 261.351562 C 705.082031 261.96875 704.949219 262.59375 704.585938 263.105469 L 694.117188 278 L 693.496094 278.867188 L 691.183594 282.164062 L 689.167969 285.023438 C 689.03125 284.953125 688.886719 284.875 688.746094 284.804688 Z M 709.953125 260.417969 C 709.589844 258.449219 708.472656 256.75 706.8125 255.636719 C 674.25 233.84375 636.339844 222.324219 597.183594 222.324219 C 556.417969 222.324219 517.230469 234.722656 483.851562 258.171875 C 482.222656 259.316406 481.148438 261.035156 480.828125 263.011719 C 480.503906 265 480.984375 266.984375 482.179688 268.601562 L 499.15625 291.609375 C 499.648438 292.28125 500.414062 292.644531 501.195312 292.644531 C 501.546875 292.644531 501.898438 292.566406 502.230469 292.414062 C 502.300781 292.382812 502.371094 292.351562 502.441406 292.316406 C 503.109375 291.933594 503.78125 291.566406 504.453125 291.191406 C 505.195312 290.789062 505.941406 290.382812 506.6875 289.984375 C 534.484375 275.136719 565.664062 267.304688 597.183594 267.304688 C 627.355469 267.304688 657.347656 274.523438 684.261719 288.207031 C 685.015625 288.59375 685.769531 288.980469 686.519531 289.375 C 687.257812 289.765625 688.003906 290.15625 688.746094 290.5625 C 688.75 290.5625 688.753906 290.5625 688.757812 290.566406 C 689.886719 291.171875 691.289062 290.839844 692.027344 289.789062 L 708.734375 266.035156 C 709.886719 264.390625 710.328125 262.398438 709.953125 260.417969 " fill-opacity="1" fill-rule="nonzero"/></g><g fill="#ef3044" fill-opacity="1"><g transform="translate(53.825121, 387.520689)"><g><path d="M 25.984375 -88.296875 C 33.210938 -88.296875 38.445312 -86.613281 41.6875 -83.25 C 44.925781 -79.882812 46.546875 -74.796875 46.546875 -67.984375 L 46.546875 -64.84375 C 46.546875 -60.300781 45.828125 -56.554688 44.390625 -53.609375 C 42.960938 -50.660156 40.695312 -48.472656 37.59375 -47.046875 C 41.375 -45.617188 44.039062 -43.285156 45.59375 -40.046875 C 47.15625 -36.804688 47.9375 -32.832031 47.9375 -28.125 L 47.9375 -20.9375 C 47.9375 -14.125 46.171875 -8.929688 42.640625 -5.359375 C 39.109375 -1.785156 33.851562 0 26.875 0 L 5.046875 0 L 5.046875 -88.296875 Z M 18.921875 -39.734375 L 18.921875 -12.609375 L 26.875 -12.609375 C 29.226562 -12.609375 31.015625 -13.238281 32.234375 -14.5 C 33.453125 -15.757812 34.0625 -18.03125 34.0625 -21.3125 L 34.0625 -29.015625 C 34.0625 -33.128906 33.363281 -35.941406 31.96875 -37.453125 C 30.582031 -38.972656 28.296875 -39.734375 25.109375 -39.734375 Z M 18.921875 -75.6875 L 18.921875 -52.34375 L 24.34375 -52.34375 C 26.945312 -52.34375 28.984375 -53.015625 30.453125 -54.359375 C 31.929688 -55.710938 32.671875 -58.15625 32.671875 -61.6875 L 32.671875 -66.609375 C 32.671875 -69.796875 32.101562 -72.101562 30.96875 -73.53125 C 29.832031 -74.96875 28.046875 -75.6875 25.609375 -75.6875 Z M 18.921875 -75.6875 "/></g></g></g><g fill="#ef3044" fill-opacity="1"><g transform="translate(120.933783, 387.520689)"><g><path d="M 34.0625 0 C 33.894531 -0.59375 33.722656 -1.140625 33.546875 -1.640625 C 33.378906 -2.140625 33.234375 -2.769531 33.109375 -3.53125 C 32.984375 -4.289062 32.898438 -5.257812 32.859375 -6.4375 C 32.816406 -7.613281 32.796875 -9.082031 32.796875 -10.84375 L 32.796875 -24.71875 C 32.796875 -28.84375 32.078125 -31.742188 30.640625 -33.421875 C 29.210938 -35.109375 26.90625 -35.953125 23.71875 -35.953125 L 18.921875 -35.953125 L 18.921875 0 L 5.046875 0 L 5.046875 -88.296875 L 25.984375 -88.296875 C 33.210938 -88.296875 38.445312 -86.613281 41.6875 -83.25 C 44.925781 -79.882812 46.546875 -74.796875 46.546875 -67.984375 L 46.546875 -61.046875 C 46.546875 -51.960938 43.519531 -45.992188 37.46875 -43.140625 C 41 -41.710938 43.414062 -39.378906 44.71875 -36.140625 C 46.019531 -32.898438 46.671875 -28.96875 46.671875 -24.34375 L 46.671875 -10.71875 C 46.671875 -8.53125 46.753906 -6.613281 46.921875 -4.96875 C 47.085938 -3.332031 47.507812 -1.675781 48.1875 0 Z M 18.921875 -75.6875 L 18.921875 -48.5625 L 24.34375 -48.5625 C 26.945312 -48.5625 28.984375 -49.234375 30.453125 -50.578125 C 31.929688 -51.921875 32.671875 -54.363281 32.671875 -57.90625 L 32.671875 -66.609375 C 32.671875 -69.796875 32.101562 -72.101562 30.96875 -73.53125 C 29.832031 -74.96875 28.046875 -75.6875 25.609375 -75.6875 Z M 18.921875 -75.6875 "/></g></g></g><g fill="#ef3044" fill-opacity="1"><g transform="translate(187.53784, 387.520689)"><g><path d="M 5.046875 -88.296875 L 18.921875 -88.296875 L 18.921875 0 L 5.046875 0 Z M 5.046875 -88.296875 "/></g></g></g><g fill="#ef3044" fill-opacity="1"><g transform="translate(227.399419, 387.520689)"><g><path d="M 49.953125 0 L 35.953125 0 L 33.546875 -16.015625 L 16.53125 -16.015625 L 14.125 0 L 1.390625 0 L 15.515625 -88.296875 L 35.828125 -88.296875 Z M 18.296875 -28 L 31.65625 -28 L 24.96875 -72.65625 Z M 18.296875 -28 "/></g></g></g><g fill="#ef3044" fill-opacity="1"><g transform="translate(294.6342, 387.520689)"><g><path d="M 17.40625 -63.953125 L 17.40625 0 L 4.921875 0 L 4.921875 -88.296875 L 22.328125 -88.296875 L 36.578125 -35.453125 L 36.578125 -88.296875 L 48.9375 -88.296875 L 48.9375 0 L 34.6875 0 Z M 17.40625 -63.953125 "/></g></g></g><g fill="#ef3044" fill-opacity="1"><g transform="translate(364.391866, 387.520689)"><g><path d="M 4.671875 -88.296875 L 18.03125 -88.296875 L 16.015625 -62.3125 L 6.5625 -62.3125 Z M 4.671875 -88.296875 "/></g></g></g><g fill="#ef3044" fill-opacity="1"><g transform="translate(402.991986, 387.520689)"><g><path d="M 3.28125 -67.109375 C 3.28125 -74.253906 4.984375 -79.738281 8.390625 -83.5625 C 11.796875 -87.394531 16.90625 -89.3125 23.71875 -89.3125 C 30.53125 -89.3125 35.640625 -87.394531 39.046875 -83.5625 C 42.453125 -79.738281 44.15625 -74.253906 44.15625 -67.109375 L 44.15625 -63.703125 L 31.03125 -63.703125 L 31.03125 -67.984375 C 31.03125 -71.179688 30.421875 -73.429688 29.203125 -74.734375 C 27.984375 -76.035156 26.28125 -76.6875 24.09375 -76.6875 C 21.90625 -76.6875 20.203125 -76.035156 18.984375 -74.734375 C 17.765625 -73.429688 17.15625 -71.179688 17.15625 -67.984375 C 17.15625 -64.960938 17.828125 -62.296875 19.171875 -59.984375 C 20.515625 -57.671875 22.195312 -55.484375 24.21875 -53.421875 C 26.238281 -51.359375 28.40625 -49.296875 30.71875 -47.234375 C 33.03125 -45.179688 35.191406 -42.929688 37.203125 -40.484375 C 39.222656 -38.046875 40.90625 -35.269531 42.25 -32.15625 C 43.601562 -29.050781 44.28125 -25.394531 44.28125 -21.1875 C 44.28125 -14.039062 42.535156 -8.550781 39.046875 -4.71875 C 35.554688 -0.894531 30.40625 1.015625 23.59375 1.015625 C 16.78125 1.015625 11.628906 -0.894531 8.140625 -4.71875 C 4.648438 -8.550781 2.90625 -14.039062 2.90625 -21.1875 L 2.90625 -27.25 L 16.015625 -27.25 L 16.015625 -20.3125 C 16.015625 -17.113281 16.664062 -14.882812 17.96875 -13.625 C 19.28125 -12.363281 21.023438 -11.734375 23.203125 -11.734375 C 25.390625 -11.734375 27.132812 -12.363281 28.4375 -13.625 C 29.75 -14.882812 30.40625 -17.113281 30.40625 -20.3125 C 30.40625 -23.332031 29.726562 -26 28.375 -28.3125 C 27.03125 -30.625 25.347656 -32.8125 23.328125 -34.875 C 21.316406 -36.9375 19.15625 -39 16.84375 -41.0625 C 14.53125 -43.125 12.363281 -45.375 10.34375 -47.8125 C 8.320312 -50.25 6.640625 -53.019531 5.296875 -56.125 C 3.953125 -59.238281 3.28125 -62.898438 3.28125 -67.109375 Z M 3.28125 -67.109375 "/></g></g></g><g fill="#ef3044" fill-opacity="1"><g transform="translate(779.859467, 387.520689)"><g><path d="M 25.484375 -88.296875 C 32.460938 -88.296875 37.65625 -86.445312 41.0625 -82.75 C 44.46875 -79.050781 46.171875 -73.625 46.171875 -66.46875 L 46.171875 -55 C 46.171875 -47.851562 44.46875 -42.425781 41.0625 -38.71875 C 37.65625 -35.019531 32.460938 -33.171875 25.484375 -33.171875 L 18.921875 -33.171875 L 18.921875 0 L 5.046875 0 L 5.046875 -88.296875 Z M 18.921875 -75.6875 L 18.921875 -45.78125 L 25.484375 -45.78125 C 27.671875 -45.78125 29.351562 -46.367188 30.53125 -47.546875 C 31.707031 -48.734375 32.296875 -50.921875 32.296875 -54.109375 L 32.296875 -67.359375 C 32.296875 -70.554688 31.707031 -72.742188 30.53125 -73.921875 C 29.351562 -75.097656 27.671875 -75.6875 25.484375 -75.6875 Z M 18.921875 -75.6875 "/></g></g></g><g fill="#ef3044" fill-opacity="1"><g transform="translate(843.814526, 387.520689)"><g><path d="M 5.046875 -88.296875 L 18.921875 -88.296875 L 18.921875 0 L 5.046875 0 Z M 5.046875 -88.296875 "/></g></g></g><g fill="#ef3044" fill-opacity="1"><g transform="translate(884.180684, 387.520689)"><g><path d="M 43.515625 -88.296875 L 43.515625 -75.9375 L 17.15625 -12.609375 L 43.515625 -12.609375 L 43.515625 0 L 2.90625 0 L 2.90625 -12.359375 L 29.265625 -75.6875 L 4.15625 -75.6875 L 4.15625 -88.296875 Z M 43.515625 -88.296875 "/></g></g></g><g fill="#ef3044" fill-opacity="1"><g transform="translate(947.252742, 387.520689)"><g><path d="M 43.515625 -88.296875 L 43.515625 -75.9375 L 17.15625 -12.609375 L 43.515625 -12.609375 L 43.515625 0 L 2.90625 0 L 2.90625 -12.359375 L 29.265625 -75.6875 L 4.15625 -75.6875 L 4.15625 -88.296875 Z M 43.515625 -88.296875 "/></g></g></g><g fill="#ef3044" fill-opacity="1"><g transform="translate(1010.324789, 387.520689)"><g><path d="M 49.953125 0 L 35.953125 0 L 33.546875 -16.015625 L 16.53125 -16.015625 L 14.125 0 L 1.390625 0 L 15.515625 -88.296875 L 35.828125 -88.296875 Z M 18.296875 -28 L 31.65625 -28 L 24.96875 -72.65625 Z M 18.296875 -28 "/></g></g></g><path stroke-linecap="butt" transform="matrix(2.85637, 0, 0, 2.866912, 84.680199, 456.375156)" fill="none" stroke-linejoin="miter" d="M -0.000179135 1.000042 L 127.475336 1.000042 " stroke="#008037" stroke-width="2" stroke-opacity="1" stroke-miterlimit="4"/><path stroke-linecap="butt" transform="matrix(2.85637, 0, 0, 2.866912, 84.680199, 252.727218)" fill="none" stroke-linejoin="miter" d="M -0.000179135 0.999867 L 127.475336 0.999867 " stroke="#008037" stroke-width="2" stroke-opacity="1" stroke-miterlimit="4"/><path stroke-linecap="butt" transform="matrix(2.85637, 0, 0, 2.866912, 741.122319, 456.375156)" fill="none" stroke-linejoin="miter" d="M -0.000428816 1.000042 L 127.475086 1.000042 " stroke="#008037" stroke-width="2" stroke-opacity="1" stroke-miterlimit="4"/><path stroke-linecap="butt" transform="matrix(2.85637, 0, 0, 2.866912, 741.122319, 252.727218)" fill="none" stroke-linejoin="miter" d="M -0.000428816 0.999867 L 127.475086 0.999867 " stroke="#008037" stroke-width="2" stroke-opacity="1" stroke-miterlimit="4"/><g fill="#008037" fill-opacity="1"><g transform="translate(458.409903, 221.509708)"><g><path d="M -18.359375 -28.109375 C -20.441406 -30.992188 -21.351562 -33.707031 -21.09375 -36.25 C -20.84375 -38.800781 -19.34375 -41.070312 -16.59375 -43.0625 C -13.84375 -45.0625 -11.210938 -45.785156 -8.703125 -45.234375 C -6.203125 -44.691406 -3.910156 -42.976562 -1.828125 -40.09375 L -0.828125 -38.71875 L -6.140625 -34.859375 L -7.390625 -36.59375 C -8.328125 -37.882812 -9.234375 -38.613281 -10.109375 -38.78125 C -10.984375 -38.957031 -11.863281 -38.722656 -12.75 -38.078125 C -13.632812 -37.429688 -14.128906 -36.664062 -14.234375 -35.78125 C -14.347656 -34.90625 -13.9375 -33.820312 -13 -32.53125 C -12.113281 -31.3125 -11.054688 -30.429688 -9.828125 -29.890625 C -8.609375 -29.347656 -7.285156 -28.953125 -5.859375 -28.703125 C -4.441406 -28.460938 -2.960938 -28.265625 -1.421875 -28.109375 C 0.109375 -27.960938 1.640625 -27.691406 3.171875 -27.296875 C 4.710938 -26.898438 6.207031 -26.269531 7.65625 -25.40625 C 9.113281 -24.539062 10.457031 -23.257812 11.6875 -21.5625 C 13.78125 -18.664062 14.679688 -15.929688 14.390625 -13.359375 C 14.109375 -10.785156 12.585938 -8.503906 9.828125 -6.515625 C 7.078125 -4.515625 4.429688 -3.773438 1.890625 -4.296875 C -0.640625 -4.828125 -2.953125 -6.539062 -5.046875 -9.4375 L -6.8125 -11.875 L -1.5 -15.71875 L 0.53125 -12.90625 C 1.46875 -11.625 2.382812 -10.914062 3.28125 -10.78125 C 4.175781 -10.65625 5.066406 -10.914062 5.953125 -11.5625 C 6.835938 -12.195312 7.359375 -12.960938 7.515625 -13.859375 C 7.671875 -14.753906 7.28125 -15.84375 6.34375 -17.125 C 5.445312 -18.363281 4.390625 -19.25 3.171875 -19.78125 C 1.960938 -20.320312 0.644531 -20.710938 -0.78125 -20.953125 C -2.21875 -21.191406 -3.703125 -21.390625 -5.234375 -21.546875 C -6.773438 -21.703125 -8.3125 -21.972656 -9.84375 -22.359375 C -11.375 -22.753906 -12.863281 -23.382812 -14.3125 -24.25 C -15.769531 -25.125 -17.117188 -26.410156 -18.359375 -28.109375 Z M -18.359375 -28.109375 "/></g></g></g><g fill="#008037" fill-opacity="1"><g transform="translate(490.475767, 199.970222)"><g><path d="M -18.625 -39.984375 L 0.671875 -49.3125 L 3.40625 -43.640625 L -3.109375 -40.484375 L 13.34375 -6.4375 L 7.09375 -3.421875 L -9.359375 -37.46875 L -15.890625 -34.3125 Z M -18.625 -39.984375 "/></g></g></g><g fill="#008037" fill-opacity="1"><g transform="translate(524.967607, 184.691026)"><g><path d="M -2.9375 -44.953125 L 6.125 -12.15625 C 6.550781 -10.613281 7.160156 -9.625 7.953125 -9.1875 C 8.742188 -8.757812 9.671875 -8.691406 10.734375 -8.984375 C 11.785156 -9.273438 12.539062 -9.804688 13 -10.578125 C 13.457031 -11.359375 13.472656 -12.519531 13.046875 -14.0625 L 3.984375 -46.859375 L 10.296875 -48.609375 L 19.25 -16.25 C 20.195312 -12.800781 20.082031 -9.921875 18.90625 -7.609375 C 17.738281 -5.304688 15.519531 -3.703125 12.25 -2.796875 C 8.96875 -1.890625 6.226562 -2.125 4.03125 -3.5 C 1.84375 -4.882812 0.273438 -7.300781 -0.671875 -10.75 L -9.625 -43.109375 Z M -2.9375 -44.953125 "/></g></g></g><g fill="#008037" fill-opacity="1"><g transform="translate(563.877012, 175.328151)"><g><path d="M 6.125 -32.546875 L 8.671875 -0.6875 L 2.453125 -0.1875 L -1.046875 -44.15625 L 7.625 -44.859375 L 16.8125 -19.09375 L 14.71875 -45.421875 L 20.875 -45.90625 L 24.375 -1.9375 L 17.265625 -1.375 Z M 6.125 -32.546875 "/></g></g></g><g fill="#008037" fill-opacity="1"><g transform="translate(605.634296, 173.447443)"><g><path d="M 12.28125 -30.75 L 8.640625 1 L 2.4375 0.28125 L 7.46875 -43.546875 L 16.109375 -42.5625 L 20.171875 -15.515625 L 23.1875 -41.75 L 29.328125 -41.03125 L 24.296875 2.796875 L 17.21875 1.984375 Z M 12.28125 -30.75 "/></g></g></g><g fill="#008037" fill-opacity="1"><g transform="translate(647.224397, 180.058698)"><g><path d="M 14.40625 -41.765625 L 21.078125 -39.890625 L 9.09375 2.5625 L 2.421875 0.6875 Z M 14.40625 -41.765625 "/></g></g></g><g fill="#008037" fill-opacity="1"><g transform="translate(673.269932, 188.070011)"><g><path d="M 21.390625 -25.28125 L 7.890625 3.671875 L 2.21875 1.03125 L 20.859375 -38.953125 L 28.75 -35.265625 L 24.046875 -8.328125 L 35.203125 -32.265625 L 40.796875 -29.65625 L 22.15625 10.328125 L 15.703125 7.328125 Z M 21.390625 -25.28125 "/></g></g></g><g fill="#008037" fill-opacity="1"><g transform="translate(710.527894, 207.118561)"><g><path d="M 24.859375 -12.375 L 32.71875 -6.703125 L 24.546875 4.640625 C 22.453125 7.535156 20.140625 9.25 17.609375 9.78125 C 15.078125 10.3125 12.425781 9.582031 9.65625 7.59375 C 6.90625 5.601562 5.378906 3.320312 5.078125 0.75 C 4.785156 -1.820312 5.6875 -4.554688 7.78125 -7.453125 L 21.203125 -26.046875 C 23.285156 -28.941406 25.59375 -30.648438 28.125 -31.171875 C 30.664062 -31.703125 33.3125 -30.972656 36.0625 -28.984375 C 38.832031 -26.992188 40.363281 -24.710938 40.65625 -22.140625 C 40.945312 -19.578125 40.050781 -16.847656 37.96875 -13.953125 L 35.453125 -10.46875 L 30.140625 -14.296875 L 32.90625 -18.140625 C 33.84375 -19.429688 34.234375 -20.53125 34.078125 -21.4375 C 33.929688 -22.351562 33.421875 -23.125 32.546875 -23.75 C 31.660156 -24.394531 30.757812 -24.644531 29.84375 -24.5 C 28.9375 -24.351562 28.015625 -23.632812 27.078125 -22.34375 L 13.140625 -3.015625 C 12.203125 -1.722656 11.8125 -0.632812 11.96875 0.25 C 12.132812 1.144531 12.660156 1.914062 13.546875 2.5625 C 14.421875 3.1875 15.304688 3.4375 16.203125 3.3125 C 17.109375 3.1875 18.03125 2.476562 18.96875 1.1875 L 23.734375 -5.421875 L 21.1875 -7.265625 Z M 24.859375 -12.375 "/></g></g></g><g fill="#008037" fill-opacity="1"><g transform="translate(443.239086, 546.515317)"><g><path d="M 1.34375 -27.421875 C 1.34375 -30.335938 2.035156 -32.578125 3.421875 -34.140625 C 4.816406 -35.710938 6.90625 -36.5 9.6875 -36.5 C 12.46875 -36.5 14.554688 -35.710938 15.953125 -34.140625 C 17.347656 -32.578125 18.046875 -30.335938 18.046875 -27.421875 L 18.046875 -26.03125 L 12.6875 -26.03125 L 12.6875 -27.78125 C 12.6875 -29.09375 12.4375 -30.015625 11.9375 -30.546875 C 11.4375 -31.078125 10.738281 -31.34375 9.84375 -31.34375 C 8.945312 -31.34375 8.25 -31.078125 7.75 -30.546875 C 7.257812 -30.015625 7.015625 -29.09375 7.015625 -27.78125 C 7.015625 -26.539062 7.285156 -25.445312 7.828125 -24.5 C 8.378906 -23.5625 9.066406 -22.671875 9.890625 -21.828125 C 10.722656 -20.984375 11.609375 -20.140625 12.546875 -19.296875 C 13.492188 -18.460938 14.378906 -17.546875 15.203125 -16.546875 C 16.023438 -15.546875 16.710938 -14.410156 17.265625 -13.140625 C 17.816406 -11.867188 18.09375 -10.375 18.09375 -8.65625 C 18.09375 -5.738281 17.378906 -3.5 15.953125 -1.9375 C 14.523438 -0.375 12.421875 0.40625 9.640625 0.40625 C 6.859375 0.40625 4.753906 -0.375 3.328125 -1.9375 C 1.898438 -3.5 1.1875 -5.738281 1.1875 -8.65625 L 1.1875 -11.140625 L 6.546875 -11.140625 L 6.546875 -8.296875 C 6.546875 -6.992188 6.8125 -6.082031 7.34375 -5.5625 C 7.875 -5.050781 8.585938 -4.796875 9.484375 -4.796875 C 10.378906 -4.796875 11.09375 -5.050781 11.625 -5.5625 C 12.15625 -6.082031 12.421875 -6.992188 12.421875 -8.296875 C 12.421875 -9.535156 12.144531 -10.625 11.59375 -11.5625 C 11.039062 -12.507812 10.351562 -13.40625 9.53125 -14.25 C 8.707031 -15.09375 7.820312 -15.9375 6.875 -16.78125 C 5.9375 -17.625 5.050781 -18.539062 4.21875 -19.53125 C 3.394531 -20.53125 2.707031 -21.664062 2.15625 -22.9375 C 1.613281 -24.207031 1.34375 -25.703125 1.34375 -27.421875 Z M 1.34375 -27.421875 "/></g></g></g><g fill="#008037" fill-opacity="1"><g transform="translate(476.423472, 546.515317)"><g><path d="M 2.0625 -36.078125 L 7.734375 -36.078125 L 7.734375 0 L 2.0625 0 Z M 2.0625 -36.078125 "/></g></g></g><g fill="#008037" fill-opacity="1"><g transform="translate(500.129191, 546.515317)"><g><path d="M 7.109375 -26.140625 L 7.109375 0 L 2.015625 0 L 2.015625 -36.078125 L 9.125 -36.078125 L 14.953125 -14.484375 L 14.953125 -36.078125 L 20 -36.078125 L 20 0 L 14.171875 0 Z M 7.109375 -26.140625 "/></g></g></g><g fill="#008037" fill-opacity="1"><g transform="translate(536.043866, 546.515317)"><g><path d="M 18.5 -13.453125 L 18.5 -8.65625 C 18.5 -5.738281 17.785156 -3.5 16.359375 -1.9375 C 14.941406 -0.375 12.835938 0.40625 10.046875 0.40625 C 7.265625 0.40625 5.160156 -0.375 3.734375 -1.9375 C 2.304688 -3.5 1.59375 -5.738281 1.59375 -8.65625 L 1.59375 -27.421875 C 1.59375 -30.335938 2.304688 -32.578125 3.734375 -34.140625 C 5.160156 -35.710938 7.265625 -36.5 10.046875 -36.5 C 12.835938 -36.5 14.941406 -35.710938 16.359375 -34.140625 C 17.785156 -32.578125 18.5 -30.335938 18.5 -27.421875 L 18.5 -23.921875 L 13.140625 -23.921875 L 13.140625 -27.78125 C 13.140625 -29.09375 12.875 -30.015625 12.34375 -30.546875 C 11.8125 -31.078125 11.097656 -31.34375 10.203125 -31.34375 C 9.304688 -31.34375 8.59375 -31.078125 8.0625 -30.546875 C 7.53125 -30.015625 7.265625 -29.09375 7.265625 -27.78125 L 7.265625 -8.296875 C 7.265625 -6.992188 7.53125 -6.082031 8.0625 -5.5625 C 8.59375 -5.050781 9.304688 -4.796875 10.203125 -4.796875 C 11.097656 -4.796875 11.8125 -5.050781 12.34375 -5.5625 C 12.875 -6.082031 13.140625 -6.992188 13.140625 -8.296875 L 13.140625 -13.453125 Z M 18.5 -13.453125 "/></g></g></g><g fill="#008037" fill-opacity="1"><g transform="translate(569.846427, 546.515317)"><g><path d="M 7.734375 -20.875 L 15.515625 -20.875 L 15.515625 -15.71875 L 7.734375 -15.71875 L 7.734375 -5.15625 L 17.53125 -5.15625 L 17.53125 0 L 2.0625 0 L 2.0625 -36.078125 L 17.53125 -36.078125 L 17.53125 -30.921875 L 7.734375 -30.921875 Z M 7.734375 -20.875 "/></g></g></g><g fill="#008037" fill-opacity="1"><g transform="translate(602.721756, 546.515317)"><g/></g></g><g fill="#008037" fill-opacity="1"><g transform="translate(624.62446, 546.515317)"><g><path d="M 13.296875 -27.21875 C 13.296875 -28.832031 13.03125 -29.921875 12.5 -30.484375 C 11.96875 -31.054688 11.253906 -31.34375 10.359375 -31.34375 C 9.460938 -31.34375 8.75 -31.078125 8.21875 -30.546875 C 7.6875 -30.015625 7.421875 -29.09375 7.421875 -27.78125 L 7.421875 -23.921875 L 2.0625 -23.921875 L 2.0625 -27.421875 C 2.0625 -30.335938 2.773438 -32.578125 4.203125 -34.140625 C 5.628906 -35.710938 7.734375 -36.5 10.515625 -36.5 C 13.296875 -36.5 15.398438 -35.710938 16.828125 -34.140625 C 18.253906 -32.578125 18.96875 -30.335938 18.96875 -27.421875 C 18.96875 -25.460938 18.664062 -23.691406 18.0625 -22.109375 C 17.46875 -20.535156 16.722656 -19.09375 15.828125 -17.78125 C 14.929688 -16.476562 13.96875 -15.285156 12.9375 -14.203125 C 11.90625 -13.117188 10.976562 -12.085938 10.15625 -11.109375 C 9.332031 -10.128906 8.675781 -9.15625 8.1875 -8.1875 C 7.707031 -7.226562 7.554688 -6.21875 7.734375 -5.15625 L 18.453125 -5.15625 L 18.453125 0 L 2.0625 0 L 2.0625 -4.4375 C 2.0625 -6.1875 2.335938 -7.726562 2.890625 -9.0625 C 3.441406 -10.40625 4.132812 -11.632812 4.96875 -12.75 C 5.8125 -13.875 6.710938 -14.925781 7.671875 -15.90625 C 8.640625 -16.882812 9.546875 -17.921875 10.390625 -19.015625 C 11.234375 -20.117188 11.925781 -21.320312 12.46875 -22.625 C 13.019531 -23.9375 13.296875 -25.46875 13.296875 -27.21875 Z M 13.296875 -27.21875 "/></g></g></g><g fill="#008037" fill-opacity="1"><g transform="translate(658.942169, 546.515317)"><g><path d="M 7.265625 -8.296875 C 7.265625 -6.992188 7.53125 -6.078125 8.0625 -5.546875 C 8.59375 -5.015625 9.304688 -4.75 10.203125 -4.75 C 11.097656 -4.75 11.8125 -5.015625 12.34375 -5.546875 C 12.875 -6.078125 13.140625 -6.992188 13.140625 -8.296875 L 13.140625 -27.78125 C 13.140625 -29.09375 12.875 -30.015625 12.34375 -30.546875 C 11.8125 -31.078125 11.097656 -31.34375 10.203125 -31.34375 C 9.304688 -31.34375 8.59375 -31.078125 8.0625 -30.546875 C 7.53125 -30.015625 7.265625 -29.09375 7.265625 -27.78125 Z M 1.59375 -27.421875 C 1.59375 -30.335938 2.332031 -32.578125 3.8125 -34.140625 C 5.289062 -35.710938 7.421875 -36.5 10.203125 -36.5 C 12.984375 -36.5 15.113281 -35.710938 16.59375 -34.140625 C 18.070312 -32.578125 18.8125 -30.335938 18.8125 -27.421875 L 18.8125 -8.65625 C 18.8125 -5.738281 18.070312 -3.5 16.59375 -1.9375 C 15.113281 -0.375 12.984375 0.40625 10.203125 0.40625 C 7.421875 0.40625 5.289062 -0.375 3.8125 -1.9375 C 2.332031 -3.5 1.59375 -5.738281 1.59375 -8.65625 Z M 1.59375 -27.421875 "/></g></g></g><g fill="#008037" fill-opacity="1"><g transform="translate(693.259878, 546.515317)"><g><path d="M 13.296875 -27.21875 C 13.296875 -28.832031 13.03125 -29.921875 12.5 -30.484375 C 11.96875 -31.054688 11.253906 -31.34375 10.359375 -31.34375 C 9.460938 -31.34375 8.75 -31.078125 8.21875 -30.546875 C 7.6875 -30.015625 7.421875 -29.09375 7.421875 -27.78125 L 7.421875 -23.921875 L 2.0625 -23.921875 L 2.0625 -27.421875 C 2.0625 -30.335938 2.773438 -32.578125 4.203125 -34.140625 C 5.628906 -35.710938 7.734375 -36.5 10.515625 -36.5 C 13.296875 -36.5 15.398438 -35.710938 16.828125 -34.140625 C 18.253906 -32.578125 18.96875 -30.335938 18.96875 -27.421875 C 18.96875 -25.460938 18.664062 -23.691406 18.0625 -22.109375 C 17.46875 -20.535156 16.722656 -19.09375 15.828125 -17.78125 C 14.929688 -16.476562 13.96875 -15.285156 12.9375 -14.203125 C 11.90625 -13.117188 10.976562 -12.085938 10.15625 -11.109375 C 9.332031 -10.128906 8.675781 -9.15625 8.1875 -8.1875 C 7.707031 -7.226562 7.554688 -6.21875 7.734375 -5.15625 L 18.453125 -5.15625 L 18.453125 0 L 2.0625 0 L 2.0625 -4.4375 C 2.0625 -6.1875 2.335938 -7.726562 2.890625 -9.0625 C 3.441406 -10.40625 4.132812 -11.632812 4.96875 -12.75 C 5.8125 -13.875 6.710938 -14.925781 7.671875 -15.90625 C 8.640625 -16.882812 9.546875 -17.921875 10.390625 -19.015625 C 11.234375 -20.117188 11.925781 -21.320312 12.46875 -22.625 C 13.019531 -23.9375 13.296875 -25.46875 13.296875 -27.21875 Z M 13.296875 -27.21875 "/></g></g></g><g fill="#008037" fill-opacity="1"><g transform="translate(727.577587, 546.515317)"><g><path d="M 12.984375 -27.21875 C 12.984375 -28.832031 12.71875 -29.921875 12.1875 -30.484375 C 11.65625 -31.054688 10.941406 -31.34375 10.046875 -31.34375 C 9.160156 -31.34375 8.445312 -31.078125 7.90625 -30.546875 C 7.375 -30.015625 7.109375 -29.09375 7.109375 -27.78125 L 7.109375 -25.46875 L 1.75 -25.46875 L 1.75 -27.421875 C 1.75 -30.335938 2.460938 -32.578125 3.890625 -34.140625 C 5.316406 -35.710938 7.421875 -36.5 10.203125 -36.5 C 12.984375 -36.5 15.085938 -35.710938 16.515625 -34.140625 C 17.941406 -32.578125 18.65625 -30.335938 18.65625 -27.421875 L 18.65625 -26.5 C 18.65625 -22.644531 17.332031 -20.171875 14.6875 -19.078125 C 16.132812 -18.453125 17.15625 -17.492188 17.75 -16.203125 C 18.351562 -14.921875 18.65625 -13.351562 18.65625 -11.5 L 18.65625 -8.65625 C 18.65625 -5.738281 17.941406 -3.5 16.515625 -1.9375 C 15.085938 -0.375 12.984375 0.40625 10.203125 0.40625 C 7.421875 0.40625 5.316406 -0.375 3.890625 -1.9375 C 2.460938 -3.5 1.75 -5.738281 1.75 -8.65625 L 1.75 -11.65625 L 7.109375 -11.65625 L 7.109375 -8.296875 C 7.109375 -6.992188 7.375 -6.078125 7.90625 -5.546875 C 8.445312 -5.015625 9.160156 -4.75 10.046875 -4.75 C 10.941406 -4.75 11.65625 -5.019531 12.1875 -5.5625 C 12.71875 -6.113281 12.984375 -7.195312 12.984375 -8.8125 L 12.984375 -11.65625 C 12.984375 -13.332031 12.691406 -14.515625 12.109375 -15.203125 C 11.523438 -15.890625 10.582031 -16.234375 9.28125 -16.234375 L 7.375 -16.234375 L 7.375 -21.390625 L 9.59375 -21.390625 C 10.65625 -21.390625 11.484375 -21.664062 12.078125 -22.21875 C 12.679688 -22.769531 12.984375 -23.765625 12.984375 -25.203125 Z M 12.984375 -27.21875 "/></g></g></g></svg>